<svg width="33" height="33" viewBox="0 0 33 33" fill="none" xmlns="http://www.w3.org/2000/svg">
<path d="M31.9941 16.9699C31.9941 25.5274 25.052 32.4663 16.4905 32.4663C13.9635 32.4663 11.5744 31.8639 9.46849 30.7897C8.82947 30.463 8.22675 30.1001 7.64582 29.6937C7.42797 29.5412 7.21738 29.3888 7.01405 29.2291C6.46943 28.8081 5.95385 28.3509 5.46732 27.8573C5.32935 27.7194 5.19138 27.5742 5.06067 27.4291C4.11665 26.3984 3.31061 25.2371 2.67158 23.9814C1.59686 21.8765 0.994141 19.4886 0.994141 16.9627C0.994141 8.4052 7.93628 1.46631 16.4978 1.46631C19.0248 1.46631 21.4139 2.06874 23.5198 3.14297C24.7761 3.78169 25.9379 4.58736 26.9691 5.53093C27.1143 5.66158 27.2595 5.79949 27.3975 5.93739C27.8913 6.4237 28.3488 6.93903 28.77 7.4834C28.9297 7.68663 29.0822 7.89712 29.2347 8.11487C29.6414 8.69553 30.0044 9.30522 30.3312 9.94395C31.3842 12.0634 31.9941 14.4441 31.9941 16.9699Z" fill="#F2F2F2" stroke="white" stroke-miterlimit="10"/>
<path d="M17.0203 28.438C23.6978 28.438 29.111 23.0274 29.111 16.3531C29.111 9.6787 23.6978 4.26807 17.0203 4.26807C10.3429 4.26807 4.92969 9.6787 4.92969 16.3531C4.92969 23.0274 10.3429 28.438 17.0203 28.438Z" fill="white"/>
<path opacity="0.25" d="M15.952 29.5045C22.6295 29.5045 28.0426 24.0938 28.0426 17.4195C28.0426 10.7451 22.6295 5.33447 15.952 5.33447C9.2745 5.33447 3.86133 10.7451 3.86133 17.4195C3.86133 24.0938 9.2745 29.5045 15.952 29.5045Z" fill="black"/>
<path d="M28.6238 16.9698C28.6238 23.6691 23.1921 29.1056 16.4823 29.1056C14.5071 29.1056 12.6336 28.6338 10.9852 27.7918C10.4842 27.5378 10.0122 27.2547 9.55469 26.9354C9.38767 26.8192 9.22065 26.6958 9.0609 26.5724C8.63246 26.2386 8.2258 25.8829 7.8482 25.4982C7.73927 25.3894 7.63035 25.2732 7.52869 25.1643C6.788 24.3587 6.15623 23.4514 5.65518 22.4643C4.81283 20.8167 4.34082 18.9513 4.34082 16.9698C4.34082 10.2704 9.77254 4.83398 16.4823 4.83398C18.4575 4.83398 20.331 5.30577 21.9794 6.14773C22.967 6.64855 23.8747 7.28001 24.6807 8.02036C24.7969 8.12197 24.9058 8.23085 25.0147 8.33972C25.3996 8.71715 25.7554 9.12361 26.0895 9.55185C26.2129 9.71153 26.3364 9.87847 26.4526 10.0454C26.7721 10.5027 27.0553 10.9745 27.3094 11.4753C28.1518 13.1302 28.6238 14.9955 28.6238 16.9698Z" fill="#F2F2F2"/>
<path opacity="0.15" d="M25.4224 7.97L23.5852 9.80633L23.0042 10.387L22.5177 10.8733L20.5934 12.7604L19.8382 13.5153L18.669 14.6839L17.9138 15.4387L10.8555 22.4938L10.2963 23.0526L7.85643 25.4914C6.82528 24.468 6.11363 23.2922 5.47461 22.0365L21.9731 5.58203C23.2294 6.22076 24.3912 7.02642 25.4224 7.97Z" fill="white"/>
<path opacity="0.15" d="M27.034 10.0382L25.1677 11.9036L24.594 12.477L24.093 12.9778L20.6727 16.3964L20.3387 16.7303L19.9175 17.1513L18.7557 18.3199L18.0004 19.0747L12.9318 24.141L12.3509 24.7216L11.8644 25.2079L9.91097 27.1604C9.35182 26.783 8.73458 26.3693 8.24805 25.8757L10.7751 23.3789L11.3488 22.8055L18.0004 16.1569L18.7557 15.402L19.9248 14.2335L20.68 13.4786L22.7568 11.3955L25.6615 8.49219C26.1553 8.97123 26.6128 9.49383 27.034 10.0382Z" fill="white"/>
<path opacity="0.15" d="M28.3343 12.724L26.3156 14.7418L25.7564 15.3006L25.2481 15.8087L21.1525 19.9677L20.8838 20.2363L20.6297 20.4903L19.8236 21.296L19.4896 21.6298L15.9677 25.1501L15.3722 25.7453L14.9002 26.2171L12.7145 28.4816C12.0755 28.2566 11.3202 27.9881 10.6885 27.6106L12.9469 25.2517L13.4334 24.7654L17.2821 20.9185L17.3038 20.8968L18.3786 19.8225L18.8361 19.3653L19.1846 19.0169L20.3537 17.8483L21.109 17.0934L24.2968 13.8417L27.2596 10.8804C27.6444 11.4828 28.0148 12.0925 28.3343 12.724Z" fill="white"/>
<path opacity="0.15" d="M4.7268 21.9346C5.24237 23.2265 5.99759 24.4387 6.97065 25.5274L5.32951 27.1678C4.3855 26.1371 3.57946 24.9758 2.94043 23.7201L4.7268 21.9346Z" fill="white"/>
<path opacity="0.15" d="M7.3843 25.9552C7.87083 26.4415 8.42272 26.8988 8.96734 27.2907L7.2899 28.9674C6.74527 28.5464 6.2297 28.0891 5.74316 27.5956L7.3843 25.9552C7.37704 25.948 7.39156 25.9625 7.3843 25.9552Z" fill="white"/>
<path opacity="0.15" d="M9.69384 27.7632C10.2603 28.0971 10.8121 28.4092 11.4221 28.6342L9.56313 30.4197C8.98946 30.1366 8.45936 29.8028 7.93652 29.4471L9.69384 27.7632Z" fill="white"/>
<path opacity="0.15" d="M21.1738 4.95008C22.4664 5.46542 23.6791 6.22028 24.7684 7.19288L26.4095 5.55252C25.3783 4.60894 24.2165 3.80328 22.9602 3.16455L21.1738 4.95008Z" fill="white"/>
<path opacity="0.15" d="M25.2034 7.60716C25.6899 8.09347 26.1474 8.64509 26.5395 9.18946L28.2169 7.51281C27.7958 6.96844 27.3383 6.4531 26.8445 5.9668L25.2034 7.60716C25.1888 7.5999 25.2106 7.60716 25.2034 7.60716Z" fill="white"/>
<path opacity="0.15" d="M27.0059 9.9147C27.3399 10.4808 27.6521 11.0325 27.8773 11.6422L29.6636 9.78405C29.3804 9.21065 29.0464 8.6808 28.6906 8.1582L27.0059 9.9147Z" fill="white"/>
</svg>
