<svg width="29" height="28" viewBox="0 0 29 28" fill="none" xmlns="http://www.w3.org/2000/svg">
<rect x="0.981445" width="28" height="28" rx="14" fill="white" fill-opacity="0.15"/>
<path fill-rule="evenodd" clip-rule="evenodd" d="M13.2311 16.3337C12.2646 16.3337 11.4811 17.1172 11.4811 18.0837C11.4811 18.4058 11.7423 18.667 12.0645 18.667H17.8978C18.22 18.667 18.4811 18.4058 18.4811 18.0837C18.4811 17.1172 17.6976 16.3337 16.7311 16.3337H13.2311ZM10.3145 18.0837C10.3145 16.4728 11.6203 15.167 13.2311 15.167H16.7311C18.3419 15.167 19.6478 16.4728 19.6478 18.0837C19.6478 19.0502 18.8643 19.8337 17.8978 19.8337H12.0645C11.098 19.8337 10.3145 19.0502 10.3145 18.0837Z" fill="white"/>
<path fill-rule="evenodd" clip-rule="evenodd" d="M14.9811 9.33366C14.0146 9.33366 13.2311 10.1172 13.2311 11.0837C13.2311 12.0502 14.0146 12.8337 14.9811 12.8337C15.9476 12.8337 16.7311 12.0502 16.7311 11.0837C16.7311 10.1172 15.9476 9.33366 14.9811 9.33366ZM12.0645 11.0837C12.0645 9.47283 13.3703 8.16699 14.9811 8.16699C16.5919 8.16699 17.8978 9.47283 17.8978 11.0837C17.8978 12.6945 16.5919 14.0003 14.9811 14.0003C13.3703 14.0003 12.0645 12.6945 12.0645 11.0837Z" fill="white"/>
</svg>
